<?xml version="1.0" encoding="iso-8859-1"?>
<!-- Generator: Adobe Illustrator 16.0.0, SVG Export Plug-In . SVG Version: 6.00 Build 0)  -->
<!DOCTYPE svg PUBLIC "-//W3C//DTD SVG 1.1//EN" "http://www.w3.org/Graphics/SVG/1.1/DTD/svg11.dtd">
<svg xmlns="http://www.w3.org/2000/svg" xmlns:xlink="http://www.w3.org/1999/xlink" version="1.1" id="Capa_1" x="0px" y="0px" width="512px" height="512px" viewBox="0 0 49.187 49.188" style="enable-background:new 0 0 49.187 49.188;" xml:space="preserve">
<g>
	<path d="M37.598,13.226c0-4.136-3.364-7.501-7.501-7.501c-0.271,0-0.54,0.016-0.806,0.045c0.192-0.686,0.151-1.34-0.716-1.34   c-0.525,0-1.235,0-2.026,0c-0.009-0.087-0.021-0.17-0.04-0.245c-0.316-1.295-0.654-2.688-0.859-3.527   c-0.206-0.839-1.86-0.915-2.15,0s-0.704,2.861-0.859,3.571c-0.011,0.052-0.015,0.122-0.015,0.201c-0.768,0-1.477,0-2.042,0   c-0.991,0-1.042,0.647-0.825,1.33c-0.222-0.02-0.444-0.035-0.668-0.035c-4.136,0-7.501,3.365-7.501,7.501   c0,4.136,3.365,7.501,7.501,7.501c0.82,0,1.624-0.141,2.386-0.399c-0.204,1.147-0.318,2.587,0.4,2.587c0.294,0,0.677,0,1.106,0   l-0.83,3.177h1.352v13.364v6.168v3.563h4.397v-1.528h2.539v1.528h4.4v-3.458h-1.477v-2.538h1.477v-3.735h-4.4v1.825h-2.539v-1.825   h-2.254V26.091h1.385l-0.83-3.177c0.322,0,0.629,0,0.881,0c0.79,0,0.667-1.444,0.422-2.665c0.822,0.306,1.695,0.478,2.59,0.478   C34.234,20.727,37.598,17.361,37.598,13.226z M25.172,16.767l-0.58-0.804l-0.579,0.804c-1.143,1.585-2.983,2.531-4.924,2.531   c-3.349,0-6.072-2.725-6.072-6.072c0-3.349,2.724-6.072,6.072-6.072c1.94,0,3.781,0.946,4.924,2.53l0.579,0.804l0.58-0.804   c1.142-1.584,2.983-2.53,4.924-2.53c3.349,0,6.072,2.724,6.072,6.072s-2.724,6.072-6.072,6.072   C28.156,19.298,26.316,18.352,25.172,16.767z" fill="#ebc221"/>
</g>
<g>
</g>
<g>
</g>
<g>
</g>
<g>
</g>
<g>
</g>
<g>
</g>
<g>
</g>
<g>
</g>
<g>
</g>
<g>
</g>
<g>
</g>
<g>
</g>
<g>
</g>
<g>
</g>
<g>
</g>
</svg>
