<svg xmlns="http://www.w3.org/2000/svg" width="832" height="832"><path d="M764.56 405.346l-146.017 90.495v-39.733H497.259l215.547-133.586 51.754 82.824zm12.062 19.303l54.708 87.55-511.518 319.632-55.887-89.438 308.75-191.348h45.868v-28.427l158.079-97.97zM251.863 723.09l-51.754-82.824 143.964-89.222h185.395L251.863 723.09zm328.403-612.676l55.25 88.417L518.588 271.3H320.672l259.594-160.884zm-12.061-19.303L277.465 271.3h-62.588v38.789L55.508 408.857.18 320.314 511.698.682l56.507 90.43zM67.57 428.16l147.307-91.293v29.37h150.526l-145.014 89.872h-5.11v3.167l-92.46 57.302-55.25-88.418zm633.174-124.94l-82.603 51.194V271.3h-56.346l85.782-53.164 53.167 85.085zM188.048 620.965L134.88 535.88l80.397-49.827v64.992h85.588l-112.818 69.92zm266.004-164.856H263.596l145.014-89.873h190.456l-145.014 89.873z"/></svg>